<?xml version="1.0" encoding="UTF-8"?>
<!DOCTYPE svg PUBLIC "-//W3C//DTD SVG 1.1//EN" "http://www.w3.org/Graphics/SVG/1.1/DTD/svg11.dtd">
<svg version="1.1" xmlns="http://www.w3.org/2000/svg" xmlns:xlink="http://www.w3.org/1999/xlink" x="0" y="0" width="45.572" height="33.612" viewBox="0, 0, 45.572, 33.612">
  <g id="Layer_1" transform="translate(-501.428, -248.388)">
    <g>
      <path d="M528.241,256.724 C531.873,256.724 535.02,258.758 536.757,261.754 L546.994,261.766 L546.994,256.106 C546.994,254.007 545.337,252.3 543.293,252.3 L505.123,252.3 C503.085,252.3 501.434,254.007 501.434,256.106 L501.445,261.719 L519.725,261.731 C521.474,258.746 524.609,256.724 528.241,256.724" fill="#FFFFFF"/>
      <path d="M511.007,250.505 L507.612,250.505 L507.219,251.765 L511.29,251.765 z" fill="#FFFFFF"/>
      <path d="M541.625,249.833 L537.104,249.833 L536.301,251.777 L542.358,251.777 z" fill="#FFFFFF"/>
      <path d="M529.673,248.388 L518.691,248.388 L516.428,251.801 L531.752,251.801 L529.673,248.388 z M526.105,251.105 L522.208,251.105 L522.208,249.167 L526.105,249.167 L526.105,251.105 z" fill="#FFFFFF"/>
      <path d="M537.283,262.765 C537.849,264.049 538.184,265.465 538.184,266.969 C538.184,272.623 533.732,277.214 528.235,277.214 C522.739,277.214 518.287,272.629 518.287,266.969 C518.287,265.465 518.616,264.049 519.188,262.759 L501.428,262.759 L501.428,278.195 C501.428,280.294 503.073,282 505.117,282 L543.287,282 C545.331,282 546.988,280.294 546.988,278.195 L547,262.765 L537.283,262.765 z" fill="#FFFFFF"/>
      <path d="M533.663,263.603 C533.507,263.318 533.31,263.051 533.097,262.795 C531.936,261.356 530.198,260.417 528.235,260.417 C526.272,260.417 524.534,261.35 523.374,262.783 C523.16,263.045 522.97,263.312 522.797,263.603 C522.208,264.59 521.861,265.732 521.861,266.969 C521.861,270.584 524.713,273.521 528.235,273.521 C531.74,273.521 534.598,270.59 534.598,266.969 C534.598,265.732 534.252,264.59 533.663,263.603" fill="#FFFFFF"/>
    </g>
  </g>
</svg>
